# xmcd CD database file generated by LOLA_Freedb v0.9beta0
# 
# Track frame offsets:
#      150
#      13053
#      27669
#      42477
#      55548
#      70287
#      83475
#      94821
#      106248
#      119610
# 
# Disc length: 1741 seconds
# 
# Revision: 0 
# Processed by: cddbd v1.5.2PL0 Copyright (c) Steve Scherf et al.
# Submitted via: LOLA_Freedb v0.9beta0
# 
DISCID=8006cb0a
DTITLE=Marty Robbins - Don´t Let Me Touch You
DYEAR=1977
DGENRE=
TTITLE0=Marty Robbins - Don´t Let Me Touch You
TTITLE1=Marty Robbins - There´s No More You And Me
TTITLE2=Marty Robbins - To Get You
TTITLE3=Marty Robbins - The Way I Loved You Best
TTITLE4=Marty Robbins - Try A Little Tenderness
TTITLE5=Marty Robbins - Return To Me
TTITLE6=Marty Robbins - Harbor Lights
TTITLE7=Marty Robbins - More Than Anything I Miss You
TTITLE8=Marty Robbins - A Tree In The Meadow
TTITLE9=Marty Robbins - Tomorrow, Tomorrow, Tomorrow
EXTD=
EXTT0=
EXTT1=
EXTT2=
EXTT3=
EXTT4=
EXTT5=
EXTT6=
EXTT7=
EXTT8=
EXTT9=
PLAYORDER=
